<svg width="100" height="27" viewBox="0 0 100 27" fill="none" xmlns="http://www.w3.org/2000/svg">
<path d="M27.0998 22.7329C28.6812 23.998 31.1323 25.4607 34.2554 25.5003C36.1531 25.5003 37.7344 24.9468 39.0786 23.9584C40.3832 22.9701 41.2925 21.6655 41.2925 20.0446C41.2925 18.4237 40.3832 16.9214 39.1181 16.0912C37.774 15.3401 36.2717 14.7866 34.4136 14.5099H34.3345C32.5555 14.2331 31.2509 13.7587 30.3811 13.1657C29.63 12.5727 29.2742 12.0192 29.2742 11.2286C29.2742 10.4379 29.7091 9.64722 30.4997 9.01468C31.3299 8.3426 32.595 7.90773 34.1764 7.90773C36.074 7.90773 37.4972 8.89608 38.9204 9.84489C39.3553 10.1216 39.9483 10.003 40.225 9.56815C40.5018 9.13328 40.3832 8.54027 39.9483 8.224C38.446 7.27519 36.667 6.12871 34.1764 6.12871C32.1997 6.12871 30.5788 6.64265 29.4323 7.43333C28.2068 8.3426 27.337 9.68675 27.337 11.2286C27.337 12.7309 28.2068 13.9959 29.4323 14.7075C30.5393 15.4982 32.0811 15.8936 33.8206 16.2098L33.8996 16.2494C35.7973 16.5656 37.1809 17.04 38.0112 17.6726C38.9995 18.5028 39.3553 19.1353 39.3948 20.0446C39.3948 20.9143 38.8809 21.7841 37.9321 22.4166C37.0623 23.1282 35.7577 23.6026 34.2554 23.6026C31.8044 23.6026 29.6695 22.3376 28.3254 21.3492C27.8905 20.9934 27.2975 21.0725 26.9812 21.4678C26.665 21.8631 26.7045 22.3771 27.0998 22.7329Z" fill="white"/>
<path d="M48.8432 24.5514C48.8432 25.0654 49.2781 25.5003 49.7921 25.5003C50.3455 25.5003 50.7804 25.0654 50.7804 24.5514V9.62829C50.7804 9.07481 50.3455 8.67948 49.7921 8.67948C49.2781 8.67948 48.8432 9.07481 48.8432 9.62829V24.5514ZM48.8432 2.6817C48.8432 3.23517 49.2781 3.70958 49.7921 3.70958C50.3455 3.70958 50.7804 3.23517 50.7804 2.6817V1.77243C50.7804 1.25849 50.3455 0.823616 49.7921 0.823616C49.2781 0.823616 48.8432 1.25849 48.8432 1.77243V2.6817Z" fill="white"/>
<path d="M72.7391 24.5514C72.7391 25.1049 73.174 25.5003 73.6879 25.5003C74.2018 25.5003 74.6367 25.1049 74.6367 24.5514V14.0355C74.6367 9.72628 71.1182 6.16825 66.7695 6.16825C64.3579 6.16825 62.1836 7.27519 60.7604 8.97514V7.11706C60.7604 6.60312 60.365 6.16825 59.8511 6.16825C59.2976 6.16825 58.9023 6.60312 58.9023 7.11706V13.7192V14.0355V24.5514V24.7886C58.9023 24.7886 58.9418 24.8282 58.9418 24.8677C58.9418 24.9072 58.9418 24.9468 58.9813 24.9863C59.0999 25.2235 59.3372 25.4212 59.6139 25.5003H59.8511C60.1278 25.5003 60.4046 25.3817 60.5627 25.1444C60.6813 25.0258 60.7208 24.8677 60.7604 24.7096V24.5514V14.0355C60.8394 10.7542 63.4882 8.06587 66.7695 8.06587C70.0903 8.06587 72.7391 10.7542 72.7391 14.0355V24.5514Z" fill="white"/>
<path d="M91.7264 25.5003C94.0194 25.5003 96.1937 24.7096 97.8146 23.4445C98.289 23.0887 98.3681 22.4957 98.0123 22.0608C97.696 21.705 97.1425 21.5864 96.7077 21.9027C95.324 22.9701 93.5845 23.6026 91.7264 23.6026C87.2196 23.6026 83.6615 20.1237 83.6615 15.775C83.6615 11.5053 87.2196 7.9868 91.7264 7.9868C93.5845 7.9868 95.324 8.61934 96.7077 9.72628C97.1425 10.0426 97.696 9.92395 98.0123 9.56815C98.3681 9.13328 98.289 8.54027 97.8937 8.26354C96.1937 6.91939 94.0194 6.12871 91.7264 6.12871C86.1917 6.12871 81.7639 10.3984 81.7639 15.775C81.7639 21.2306 86.1917 25.5003 91.7264 25.5003Z" fill="white"/>
<path d="M58.1806 25.2318L58.0786 25.1298V7.11705C58.0786 6.17091 58.8204 5.34462 59.8511 5.34462C60.8482 5.34462 61.5602 6.16678 61.5834 7.0715C63.0264 5.99349 64.8278 5.34462 66.7695 5.34462C71.5758 5.34462 75.4603 9.2741 75.4603 14.0355V24.5514C75.4603 25.5821 74.634 26.3239 73.6879 26.3239C72.7417 26.3239 71.9155 25.5821 71.9155 24.5514V14.0355C71.9155 11.2055 69.6319 8.88948 66.7695 8.88948C63.9568 8.88948 61.6576 11.1972 61.584 14.0457V24.811L61.5594 24.9093L61.553 24.9354C61.5212 25.0674 61.4439 25.3884 61.205 25.6626C60.862 26.1283 60.326 26.3239 59.8511 26.3239H59.4985L59.3876 26.2922C58.9278 26.1608 58.524 25.8484 58.2894 25.4383C58.2406 25.3683 58.2056 25.298 58.1806 25.2318Z" fill="white"/>
<path fill-rule="evenodd" clip-rule="evenodd" d="M26.5667 23.3611L26.5489 23.3451C25.8372 22.7045 25.7427 21.6976 26.3381 20.9533C26.9392 20.2019 28.0435 20.0712 28.8278 20.6963C30.1309 21.6522 32.0812 22.779 34.2555 22.779C35.593 22.779 36.7065 22.3553 37.4106 21.7792L37.4417 21.7537L37.4753 21.7313C38.2479 21.2163 38.5645 20.5862 38.5711 20.0614C38.5544 19.7269 38.4841 19.48 38.346 19.2416C38.1977 18.9854 37.9456 18.6949 37.4971 18.3164C36.8279 17.8136 35.6129 17.3699 33.7643 17.0618L33.6421 17.0414L33.557 16.9989C31.8727 16.6878 30.225 16.2729 28.9852 15.4001C27.5638 14.5609 26.5134 13.0545 26.5134 11.2286C26.5134 9.3599 27.5661 7.7924 28.9416 6.77189L28.953 6.7634L28.9648 6.75532C30.2702 5.85501 32.0608 5.3051 34.1764 5.3051C36.8724 5.3051 38.8115 6.53096 40.2882 7.46449C40.3218 7.4857 40.3551 7.50676 40.3881 7.52765L40.411 7.54205L40.4328 7.55792C41.2027 8.11785 41.4412 9.19118 40.9199 10.0103C40.388 10.8462 39.2794 11.0496 38.4783 10.5397L38.4709 10.535L38.4161 10.4985C36.9727 9.53613 35.7657 8.73136 34.1764 8.73136C32.7373 8.73136 31.6691 9.1277 31.018 9.65484L31.0161 9.65633L31.0143 9.65782C30.3617 10.1799 30.0978 10.7532 30.0978 11.2286C30.0978 11.4884 30.1531 11.6786 30.2562 11.8542C30.3651 12.0397 30.5503 12.247 30.8687 12.5012C31.5933 12.9878 32.7399 13.4219 34.399 13.6863H34.4746L34.5349 13.6952C36.4943 13.9871 38.0913 14.5739 39.5199 15.3723L39.5455 15.3866L39.57 15.4026C41.0465 16.3716 42.1161 18.1224 42.1161 20.0446C42.1161 22.0115 41.0039 23.5332 39.5759 24.615L39.5712 24.6185L39.5665 24.622C38.0802 25.7149 36.3277 26.3239 34.2555 26.3239H34.2503L34.245 26.3238C30.8645 26.281 28.2389 24.6989 26.5854 23.376L26.5667 23.3611ZM34.3345 14.5099C32.5555 14.2331 31.2509 13.7587 30.3812 13.1657C29.63 12.5727 29.2742 12.0192 29.2742 11.2286C29.2742 10.4379 29.7091 9.64722 30.4998 9.01468C31.33 8.34261 32.5951 7.90774 34.1764 7.90774C36.0182 7.90774 37.4131 8.83881 38.7949 9.76112C38.8368 9.78906 38.8786 9.81699 38.9205 9.84489C39.3553 10.1216 39.9483 10.003 40.2251 9.56815C40.5018 9.13328 40.3832 8.54028 39.9483 8.22401C39.9272 8.21063 39.9059 8.19721 39.8846 8.18376C38.3957 7.24309 36.6319 6.12872 34.1764 6.12872C32.1997 6.12872 30.5788 6.64266 29.4324 7.43333C28.2068 8.34261 27.3371 9.68676 27.3371 11.2286C27.3371 12.7309 28.2068 13.9959 29.4324 14.7075C30.5393 15.4982 32.0811 15.8936 33.8206 16.2098L33.8997 16.2494C35.7973 16.5656 37.181 17.04 38.0112 17.6726C38.9995 18.5028 39.3553 19.1353 39.3949 20.0446C39.3949 20.9143 38.8809 21.7841 37.9321 22.4166C37.0624 23.1282 35.7578 23.6026 34.2555 23.6026C31.8044 23.6026 29.6696 22.3376 28.3254 21.3492C27.8905 20.9934 27.2975 21.0725 26.9813 21.4678C26.665 21.8632 26.7045 22.3771 27.0999 22.7329C28.6812 23.998 31.1323 25.4607 34.2555 25.5003C36.1531 25.5003 37.7344 24.9468 39.0786 23.9584C40.3832 22.9701 41.2925 21.6655 41.2925 20.0446C41.2925 18.4237 40.3832 16.9214 39.1181 16.0912C37.774 15.3401 36.2717 14.7866 34.4136 14.5099H34.3345ZM49.7921 26.3239C48.8233 26.3239 48.0197 25.5203 48.0197 24.5515V9.62829C48.0197 8.5976 48.8459 7.85586 49.7921 7.85586C50.7554 7.85586 51.604 8.57622 51.604 9.62829V24.5515C51.604 25.542 50.7784 26.3239 49.7921 26.3239ZM49.7921 4.53321C48.7608 4.53321 48.0197 3.62497 48.0197 2.68171V1.77243C48.0197 0.803617 48.8233 0 49.7921 0C50.7784 0 51.604 0.781899 51.604 1.77243V2.68171C51.604 3.64753 50.8418 4.53321 49.7921 4.53321ZM96.7077 21.9027C97.1426 21.5864 97.696 21.705 98.0123 22.0608C98.3681 22.4957 98.2891 23.0887 97.8147 23.4445C96.1938 24.7096 94.0194 25.5003 91.7264 25.5003C86.1917 25.5003 81.7639 21.2306 81.7639 15.775C81.7639 10.3984 86.1917 6.12872 91.7264 6.12872C94.0194 6.12872 96.1938 6.91939 97.8937 8.26354C98.2891 8.54028 98.3681 9.13328 98.0123 9.56815C97.696 9.92396 97.1426 10.0426 96.7077 9.72629C95.324 8.61935 93.5845 7.98681 91.7264 7.98681C87.2196 7.98681 83.6616 11.5053 83.6616 15.775C83.6616 20.1237 87.2196 23.6026 91.7264 23.6026C93.5845 23.6026 95.324 22.9701 96.7077 21.9027ZM98.3884 7.60474C96.548 6.15536 94.2008 5.3051 91.7264 5.3051C85.7631 5.3051 80.9403 9.91768 80.9403 15.775C80.9403 21.707 85.7586 26.3239 91.7264 26.3239C94.2009 26.3239 96.5512 25.4733 98.3158 24.0981C99.1357 23.4777 99.3186 22.3567 98.6498 21.5393L98.6391 21.5262L98.6279 21.5136C98.0706 20.8866 97.0479 20.6369 96.2233 21.2366L96.2138 21.2434L96.2046 21.2506C94.96 22.2107 93.3961 22.779 91.7264 22.779C87.6529 22.779 84.4852 19.6475 84.4852 15.775C84.4852 11.9815 87.6529 8.81042 91.7264 8.81042C93.3953 8.81042 94.9538 9.37791 96.1932 10.3694L96.208 10.3813L96.2233 10.3924C97.0479 10.9921 98.0706 10.7423 98.6279 10.1153L98.6391 10.1027L98.6498 10.0897C99.2687 9.33322 99.1987 8.19164 98.3884 7.60474ZM49.7921 25.5003C49.2781 25.5003 48.8433 25.0654 48.8433 24.5515V9.62829C48.8433 9.07482 49.2781 8.67948 49.7921 8.67948C50.3456 8.67948 50.7804 9.07482 50.7804 9.62829V24.5515C50.7804 25.0654 50.3456 25.5003 49.7921 25.5003ZM49.7921 3.70958C49.2781 3.70958 48.8433 3.23518 48.8433 2.68171V1.77243C48.8433 1.25849 49.2781 0.82362 49.7921 0.82362C50.3456 0.82362 50.7804 1.25849 50.7804 1.77243V2.68171C50.7804 3.23518 50.3456 3.70958 49.7921 3.70958Z" fill="white"/>
<path d="M7.54602 6.27108H11.046V25.7187H7.54602V6.27108Z" fill="#DAFF2C"/>
<path d="M16.842 9.61744L18.592 12.6485L1.74994 22.3723L-5.89483e-05 19.3412L16.842 9.61744Z" fill="#DAFF2C"/>
<path d="M0 12.6485L1.75 9.61743L18.5921 19.3412L16.8421 22.3723L0 12.6485Z" fill="#DAFF2C"/>
</svg>
